HIERARCHY
ROOT root
{
	OFFSET 0.000000 0.000000 0.000000
	CHANNELS 6 Xposition Yposition Zposition Zrotation Yrotation Xrotation
	JOINT lhip
	{
		OFFSET 0.058581 -0.082280 -0.017664
		CHANNELS 3 Zrotation Yrotation Xrotation
		JOINT lknee
		{
			OFFSET 0.043451 -0.386469 0.008037
			CHANNELS 3 Zrotation Yrotation Xrotation
			JOINT lankle
			{
				OFFSET -0.014790 -0.426874 -0.037428
				CHANNELS 3 Zrotation Yrotation Xrotation
				JOINT ltoe
				{
					OFFSET 0.041054 -0.060286 0.122042
					CHANNELS 3 Zrotation Yrotation Xrotation
					End Site
					{
						OFFSET 0.000000 0.000000 0.000000
					}
				}
			}
		}
	}
	JOINT rhip
	{
		OFFSET -0.060310 -0.090513 -0.013543
		CHANNELS 3 Zrotation Yrotation Xrotation
		JOINT rknee
		{
			OFFSET -0.043257 -0.383688 -0.004843
			CHANNELS 3 Zrotation Yrotation Xrotation
			JOINT rankle
			{
				OFFSET 0.019056 -0.420046 -0.034562
				CHANNELS 3 Zrotation Yrotation Xrotation
				JOINT rtoe
				{
					OFFSET -0.034840 -0.062106 0.130323
					CHANNELS 3 Zrotation Yrotation Xrotation
					End Site
					{
						OFFSET 0.000000 0.000000 0.000000
					}
				}
			}
		}
	}
	JOINT lowerback
	{
		OFFSET 0.004439 0.124404 -0.038385
		CHANNELS 3 Zrotation Yrotation Xrotation
		JOINT upperback
		{
			OFFSET 0.004488 0.137956 0.026820
			CHANNELS 3 Zrotation Yrotation Xrotation
			JOINT chest
			{
				OFFSET -0.002265 0.056032 0.002855
				CHANNELS 3 Zrotation Yrotation Xrotation
				JOINT lowerneck
				{
					OFFSET -0.013390 0.211636 -0.033468
					CHANNELS 3 Zrotation Yrotation Xrotation
					JOINT upperneck
					{
						OFFSET 0.010113 0.088937 0.050410
						CHANNELS 3 Zrotation Yrotation Xrotation
						End Site
						{
							OFFSET 0.000000 0.000000 0.000000
						}
					}
				}
				JOINT lclavicle
				{
					OFFSET 0.071702 0.114000 -0.018898
					CHANNELS 3 Zrotation Yrotation Xrotation
					JOINT lshoulder
					{
						OFFSET 0.122921 0.045205 -0.019046
						CHANNELS 3 Zrotation Yrotation Xrotation
						JOINT lelbow
						{
							OFFSET 0.255332 -0.015649 -0.022946
							CHANNELS 3 Zrotation Yrotation Xrotation
							JOINT lwrist
							{
								OFFSET 0.265709 0.012698 -0.007375
								CHANNELS 3 Zrotation Yrotation Xrotation
								End Site
								{
									OFFSET 0.000000 0.000000 0.000000
								}
							}
						}
					}
				}
				JOINT rclavicle
				{
					OFFSET -0.082954 0.112472 -0.023707
					CHANNELS 3 Zrotation Yrotation Xrotation
					JOINT rshoulder
					{
						OFFSET -0.113228 0.046853 -0.008472
						CHANNELS 3 Zrotation Yrotation Xrotation
						JOINT relbow
						{
							OFFSET -0.260127 -0.014369 -0.031269
							CHANNELS 3 Zrotation Yrotation Xrotation
							JOINT rwrist
							{
								OFFSET -0.269108 0.006794 -0.006027
								CHANNELS 3 Zrotation Yrotation Xrotation
								End Site
								{
									OFFSET 0.000000 0.000000 0.000000
								}
							}
						}
					}
				}
			}
		}
	}
}
MOTION
Frames: 17
Frame Time: 0.033333
-0.043853 -1.104260 0.941596 -162.004440 -1.223914 100.846101 8.567391 7.793261 -37.929096 -10.357086 15.404275 43.756326 3.586550 11.718983 -18.981891 0.000000 -0.000000 0.000000 -12.178340 -11.405371 11.437138 5.032331 -5.134161 10.203190 6.721083 -4.414103 -13.252463 0.000000 -0.000000 0.000000 -1.950957 13.433355 13.673956 -3.097979 0.124536 7.974409 -1.777940 3.660156 -4.753142 -6.038327 -0.458284 -2.783509 -2.976369 -0.042368 8.434178 -28.365808 6.041318 2.873528 -41.443519 9.971879 9.512640 7.129241 -20.365735 -7.627073 -10.307507 -9.787491 -1.723356 29.654539 8.226290 5.953104 37.612208 10.981494 2.212498 -7.576747 64.788593 -15.613370 11.422601 15.678123 -10.976113 
-0.062469 -1.079208 0.926381 -160.729448 -1.005461 101.902680 8.386016 8.697273 -39.088624 -11.388082 16.456816 47.111908 4.244401 12.902632 -20.415543 0.000000 -0.000000 0.000000 -12.867692 -11.475046 13.112598 5.198421 -4.824694 10.030508 7.616593 -4.160844 -12.580593 0.000000 -0.000000 0.000000 -2.480261 14.095414 12.392143 -2.977150 0.433444 8.719398 -1.787530 3.938296 -5.062567 -4.409857 -1.427508 -1.981751 -2.294874 -1.815857 8.033290 -28.113048 6.544201 3.703229 -40.152823 7.622742 8.078974 6.851976 -25.017507 -10.222037 -11.311112 -8.881669 -0.639568 29.015641 7.783910 6.672321 37.166621 9.692305 1.312878 -4.901047 63.987667 -12.953379 14.616654 14.367888 -11.973920 
-0.086641 -1.052461 0.915977 -159.467617 -1.060775 103.912170 7.356606 8.795021 -39.713514 -11.119561 17.942339 49.000283 4.578597 12.667389 -24.364121 0.000000 -0.000000 0.000000 -13.293372 -10.963535 11.580627 4.339422 -4.936114 13.468531 9.265664 -4.080278 -10.650533 0.000000 -0.000000 0.000000 -3.333191 14.203876 10.083738 -2.680271 0.817648 10.146208 -2.027772 4.055808 -5.786001 -3.611949 -2.523834 -0.957772 -0.731960 -3.407570 6.039740 -28.844045 7.221128 2.965734 -37.835899 5.792052 8.894023 6.362798 -31.729181 -11.331308 -11.798372 -9.387343 -1.177014 29.261830 6.812950 6.656722 36.899400 7.639514 1.856136 -4.099775 61.280085 -12.636755 14.770383 13.755243 -12.915790 
-0.113847 -1.025063 0.910783 -157.174181 -1.098873 105.082928 6.088273 7.608482 -38.957245 -10.813326 17.887003 49.878327 5.750229 13.804337 -26.588582 0.000000 -0.000000 0.000000 -12.673532 -10.021276 8.194566 2.263138 -6.093344 21.607423 8.682391 -5.168675 -6.992949 0.000000 -0.000000 0.000000 -3.724190 13.566969 9.398869 -1.923403 0.970136 11.196997 -2.141479 3.905572 -6.650410 -2.289006 -3.513988 -0.132671 0.513942 -5.140130 4.501912 -28.594838 6.826774 2.911930 -37.558213 3.564446 10.437676 6.646878 -39.065831 -10.963514 -11.151593 -10.840742 -1.351030 29.237052 5.975252 6.271460 37.519209 4.579884 3.215041 -4.882079 56.657584 -13.266201 13.445355 14.436970 -13.277960 
-0.142750 -0.997696 0.908353 -153.699380 -1.316493 105.553254 4.692628 5.932548 -37.428544 -11.599318 16.238526 50.065382 5.722598 14.335956 -28.605967 0.000000 -0.000000 0.000000 -10.701366 -8.254863 1.348592 -1.093841 -6.797916 36.317576 6.724480 -8.828833 -3.905053 0.000000 -0.000000 0.000000 -3.719383 11.464890 10.015684 -0.732374 0.781809 11.619483 -1.995574 3.427023 -7.054090 -1.332758 -4.164226 0.329909 2.043689 -6.248083 2.835068 -28.083385 6.082599 2.637018 -37.544827 1.277997 12.203750 6.036059 -47.561334 -7.916560 -8.025783 -12.501470 -2.621469 29.428270 5.085068 5.697821 37.954012 1.973856 4.366519 -6.860478 50.869450 -13.534984 7.590004 15.484093 -12.696340 
-0.171902 -0.968483 0.906361 -149.219248 -1.875222 105.157909 3.169585 4.018776 -34.095645 -12.789766 13.459520 49.061502 6.830744 15.755227 -31.015443 0.000000 -0.000000 0.000000 -9.310543 -6.667642 -6.843911 -2.320853 -7.266492 54.163796 3.957748 -12.681518 -3.014711 0.000000 -0.000000 0.000000 -3.980070 8.381464 11.277918 1.015864 -0.119209 11.516070 -1.212013 2.537882 -7.083653 -0.509959 -4.852991 0.907602 2.757658 -6.366592 1.721802 -27.177306 5.263440 2.375167 -36.955631 -0.622801 13.390498 4.212912 -57.636676 -3.567615 -5.561372 -13.201332 -3.182030 29.159170 4.310995 4.465337 38.211289 -0.676196 6.364771 -6.622398 44.771803 -12.054926 5.568279 14.044933 -14.926224 
-0.201528 -0.936647 0.908300 -144.669411 -2.329404 104.045597 1.808923 2.613596 -28.677103 -13.920865 9.305498 46.127557 7.564989 16.935135 -32.514758 0.000000 -0.000000 0.000000 -8.892626 -5.874084 -15.339969 -0.920656 -9.181484 69.428020 2.233516 -13.178771 -4.491271 0.000000 -0.000000 0.000000 -3.472232 4.765897 13.137834 2.770211 -1.280235 11.195960 -0.522697 2.042883 -7.021986 -0.205797 -5.592267 0.814574 2.993651 -6.350166 1.254021 -25.899171 3.627014 2.811171 -36.012356 -2.704607 14.122313 3.659474 -67.737302 0.016577 -2.311853 -14.737465 -3.856809 29.171669 3.443065 3.326549 37.939333 -3.821545 7.430858 -6.975120 40.285042 -10.303425 4.324240 13.481070 -16.684270 
-0.232091 -0.904572 0.918257 -140.852508 -2.449983 103.780170 0.707568 1.852077 -22.973887 -14.104485 4.412682 41.170315 7.238061 17.465846 -32.447489 0.000000 -0.000000 0.000000 -8.534736 -6.255951 -26.001718 0.733581 -11.565079 79.248549 1.966904 -12.258356 -5.924485 0.000000 -0.000000 0.000000 -1.357848 0.547990 14.829113 4.136097 -2.121581 10.011480 -0.427612 1.240681 -7.027502 -1.267578 -5.715793 -0.481960 3.255628 -6.076882 1.225124 -25.329225 3.746506 2.143530 -34.117441 -5.337764 14.024415 1.042831 -76.029605 4.331900 0.484973 -16.157664 -4.039678 29.079221 2.203708 2.467580 37.359105 -6.404171 7.597759 -7.181925 37.138295 -9.594756 3.632877 13.645277 -15.865791 
-0.265405 -0.867394 0.936418 -138.752444 -2.756511 103.839743 -0.299731 2.137736 -15.669614 -13.705305 -0.872414 33.125198 5.948822 17.449022 -29.680311 0.000000 -0.000000 0.000000 -8.102473 -7.070012 -36.089778 1.993080 -13.257006 81.564967 1.948962 -10.951225 -7.475159 0.000000 -0.000000 0.000000 0.177786 -2.627443 14.249703 5.630123 -2.378744 9.331903 0.046842 0.371620 -6.624032 -2.792570 -6.152774 -0.510460 3.171120 -5.235181 1.593780 -24.782629 3.381635 2.603307 -33.533499 -7.260910 13.468413 1.840763 -81.629099 3.937103 2.926277 -16.932916 -4.485412 28.773349 0.772443 1.670784 36.137385 -8.802802 7.484123 -6.584368 35.243167 -8.913060 3.423049 13.758058 -14.701863 
-0.301385 -0.825157 0.961089 -138.027685 -2.860371 103.729455 -0.694367 2.590458 -7.797255 -11.993383 -5.079288 24.645237 3.737525 16.925231 -23.515509 0.000000 -0.000000 0.000000 -7.560353 -6.908615 -43.114864 3.231793 -15.019314 75.899345 2.182689 -9.923695 -7.920451 0.000000 -0.000000 0.000000 2.262966 -6.064044 13.105778 6.528044 -2.488803 8.771487 0.304958 -0.164015 -6.109123 -4.340808 -5.341021 -0.836775 2.232255 -4.077422 2.898244 -24.257289 3.918429 1.930422 -33.887223 -8.029871 14.071992 1.756616 -84.550043 3.543309 5.638545 -17.208708 -5.236403 27.919657 -0.386282 0.988182 35.080983 -9.941220 7.919752 -5.367363 33.619008 -9.568840 2.821168 14.043016 -14.430621 
-0.338890 -0.777691 0.986289 -137.697675 -2.913737 104.231907 -0.401931 3.036642 -2.336265 -9.803486 -6.781282 19.099899 0.243593 14.051454 -13.384416 0.000000 -0.000000 0.000000 -7.500481 -5.944831 -46.663800 4.384018 -18.063114 63.794927 3.205761 -9.008759 -7.195513 0.000000 -0.000000 0.000000 4.816215 -8.874041 10.458279 6.985570 -2.640228 7.870643 0.637138 -0.472673 -5.314341 -5.928421 -4.424954 0.267383 1.670106 -2.912834 3.243922 -24.363348 4.147476 1.784324 -34.256664 -7.261371 15.311847 0.823145 -86.201680 4.423697 6.345880 -17.744577 -5.951962 27.178916 -1.371678 0.763796 33.842368 -11.532092 7.873164 -3.824483 33.315121 -10.365331 3.273920 14.483298 -14.056713 
-0.395278 -0.701094 1.014860 -137.945885 -4.621526 104.931489 -0.861517 2.840176 1.981473 -7.490471 -6.294990 15.589511 -5.668942 11.524569 3.493071 0.000000 -0.000000 0.000000 -7.184601 -4.712527 -46.283939 5.706587 -19.456535 41.241817 0.499752 -9.455380 -6.990408 0.000000 -0.000000 0.000000 6.621049 -10.491260 5.430606 7.229800 -3.897735 8.809463 1.047816 -0.710922 -6.415050 -8.106024 -4.224735 3.959306 2.332473 -2.037314 3.016076 -24.990141 5.266089 3.439880 -35.478863 -6.267164 16.684032 -18.655072 -87.034848 22.964862 6.560236 -19.132036 -5.849403 26.467617 -3.307495 2.585700 33.762956 -12.041076 7.637432 -3.005143 33.373421 -11.527567 4.255304 15.458541 -11.921253 
-0.431168 -0.646093 1.021648 -139.382127 -6.558233 104.678336 -2.082351 1.794773 3.467633 -6.772840 -7.559995 17.631024 -7.262810 10.512709 9.103094 0.000000 -0.000000 0.000000 -6.018679 -4.970279 -44.558517 4.637194 -20.489239 31.837608 0.245506 -11.601333 -5.939694 0.000000 -0.000000 0.000000 5.539350 -10.133333 2.044567 7.139741 -4.359153 9.825652 1.249325 -0.675783 -6.304393 -9.554170 -4.902597 6.779276 3.983403 -1.567888 3.066123 -25.182023 6.210337 4.518176 -36.183024 -5.756636 16.865761 -40.260389 -85.592651 45.029717 3.646352 -19.200586 -5.308542 26.477627 -4.462160 4.049780 34.993795 -11.348178 6.545061 -2.972780 33.508256 -12.438207 6.321646 15.515695 -10.176780 
-0.462990 -0.588074 1.016956 -140.912718 -7.363505 103.307299 -1.364620 1.173286 3.153466 -6.369228 -4.902683 25.119966 -6.434207 13.322716 7.220073 0.000000 -0.000000 0.000000 -3.838969 -4.605785 -42.111046 2.948233 -23.673956 29.866696 0.070731 -13.317577 -3.756020 0.000000 -0.000000 0.000000 4.773832 -9.270693 0.555750 7.032823 -4.240647 9.640775 1.127493 -0.606543 -5.126894 -9.466809 -5.077997 8.742661 4.606719 -2.410374 3.015525 -25.220433 7.506414 4.748440 -37.374130 -5.738002 17.017591 -40.085587 -81.985007 44.138930 1.105309 -19.409828 -4.127327 27.157122 -5.070618 3.987792 36.505377 -10.956132 5.464419 -2.453863 34.101078 -12.918397 8.067536 15.360956 -9.123673 
-0.493585 -0.532174 1.002486 -143.724049 -8.748529 101.634255 -1.298078 0.342313 1.136224 -5.125716 0.493156 35.691458 -2.546344 17.403328 2.393363 0.000000 -0.000000 0.000000 -2.543387 -3.154619 -38.790270 3.440428 -22.172325 31.798400 -3.091851 -12.366074 -4.816955 0.000000 -0.000000 0.000000 3.211504 -7.365335 0.028356 6.765276 -3.698681 11.038314 0.579103 -0.529985 -5.433987 -9.186888 -6.171542 9.229936 4.597512 -2.860181 3.526556 -26.140497 8.589902 4.678768 -37.790739 -5.190689 17.543847 -32.016440 -77.894842 35.138543 -0.421461 -18.476582 -4.140378 28.711656 -5.690596 2.527411 37.449448 -10.223962 6.168357 -2.408576 35.783297 -13.196167 9.435435 14.931332 -9.075571 
-0.522410 -0.476783 0.979160 -146.451797 -9.768949 99.528821 -0.099772 -0.002335 -2.286237 -4.660958 2.969747 48.100799 -0.538026 19.484908 -2.361301 0.000000 -0.000000 0.000000 -0.968291 -2.305902 -33.875779 2.084126 -20.253944 35.355512 -6.119495 -15.612997 -14.010836 0.000000 -0.000000 0.000000 1.603278 -5.061317 1.053991 6.549518 -3.175175 11.191868 0.793521 -0.573251 -5.281740 -9.579850 -7.553382 8.904291 4.626747 -2.946502 4.318484 -27.409046 9.168693 5.037161 -38.590434 -3.827680 17.150900 -24.563203 -72.425475 26.854370 -2.124173 -16.579764 -3.898581 30.347569 -5.117931 1.603240 37.583799 -9.434240 6.811809 -2.339592 38.883955 -12.445982 9.892367 14.408259 -10.377175 
-0.547645 -0.425302 0.951701 -149.301742 -10.546660 97.863708 1.872629 -0.669781 -8.041344 -5.887255 5.002852 60.099211 0.933586 18.564748 -6.302769 0.000000 -0.000000 0.000000 -0.436570 -1.250943 -30.008689 2.451190 -15.478646 40.801774 -7.243087 -16.541251 -23.246156 0.000000 -0.000000 0.000000 0.286977 -2.445788 3.272085 6.394797 -2.714717 11.379144 0.988885 -0.373020 -6.349198 -9.291229 -9.073089 6.379119 4.167065 -3.462926 6.650679 -28.818469 9.428911 4.790831 -39.245289 -1.922642 17.366918 -18.923425 -65.397135 20.499911 -2.751170 -14.266995 -3.111120 32.355170 -3.793052 -0.018181 36.612625 -8.592046 8.651272 -2.208745 43.145118 -10.808093 9.294863 14.491872 -11.492674 
